<svg width="24" height="24" viewBox="0 0 24 24" fill="none" xmlns="http://www.w3.org/2000/svg">
<path d="M2.58002 19.0098L2.56002 19.0298C2.29002 18.4398 2.12002 17.7698 2.05002 17.0298C2.12002 17.7598 2.31002 18.4198 2.58002 19.0098Z" fill="#005FD0"/>
<path d="M9.00003 10.3801C10.3145 10.3801 11.38 9.31456 11.38 8.00012C11.38 6.68568 10.3145 5.62012 9.00003 5.62012C7.68559 5.62012 6.62003 6.68568 6.62003 8.00012C6.62003 9.31456 7.68559 10.3801 9.00003 10.3801Z" fill="#005FD0"/>
<path d="M16.1899 2H7.80992C4.16992 2 1.99992 4.17 1.99992 7.81V16.19C1.99992 17.28 2.18992 18.23 2.55992 19.03C3.41992 20.93 5.25992 22 7.80992 22H16.1899C19.8299 22 21.9999 19.83 21.9999 16.19V13.9V7.81C21.9999 4.17 19.8299 2 16.1899 2ZM20.3699 12.5C19.5899 11.83 18.3299 11.83 17.5499 12.5L13.3899 16.07C12.6099 16.74 11.3499 16.74 10.5699 16.07L10.2299 15.79C9.51992 15.17 8.38992 15.11 7.58992 15.65L3.84992 18.16C3.62992 17.6 3.49992 16.95 3.49992 16.19V7.81C3.49992 4.99 4.98992 3.5 7.80992 3.5H16.1899C19.0099 3.5 20.4999 4.99 20.4999 7.81V12.61L20.3699 12.5Z" fill="#005FD0"/>
</svg>
